<?xml version="1.0" encoding="UTF-8" standalone="no"?>
<!DOCTYPE svg PUBLIC "-//W3C//DTD SVG 1.1//EN"
 "http://www.w3.org/Graphics/SVG/1.1/DTD/svg11.dtd">
<!-- Generated by graphviz version 2.49.0 (20210829.0051)
 -->
<!-- Title: Tree Pages: 1 -->
<svg width="2876pt" height="477pt"
 viewBox="0.00 0.00 2875.50 477.00" xmlns="http://www.w3.org/2000/svg" xmlns:xlink="http://www.w3.org/1999/xlink">
<g id="graph0" class="graph" transform="scale(1 1) rotate(0) translate(4 473)">
<title>Tree</title>
<polygon fill="white" stroke="transparent" points="-4,4 -4,-473 2871.5,-473 2871.5,4 -4,4"/>
<!-- 0 -->
<g id="node1" class="node">
<title>0</title>
<path fill="#f9e0cf" stroke="black" d="M1526.5,-469C1526.5,-469 1371.5,-469 1371.5,-469 1365.5,-469 1359.5,-463 1359.5,-457 1359.5,-457 1359.5,-413 1359.5,-413 1359.5,-407 1365.5,-401 1371.5,-401 1371.5,-401 1526.5,-401 1526.5,-401 1532.5,-401 1538.5,-407 1538.5,-413 1538.5,-413 1538.5,-457 1538.5,-457 1538.5,-463 1532.5,-469 1526.5,-469"/>
<text text-anchor="start" x="1401.5" y="-453.8" font-family="Helvetica,sans-Serif" font-size="14.00">smoker ≤ 0.5</text>
<text text-anchor="start" x="1367.5" y="-438.8" font-family="Helvetica,sans-Serif" font-size="14.00">mse = 146214284.621</text>
<text text-anchor="start" x="1396" y="-423.8" font-family="Helvetica,sans-Serif" font-size="14.00">samples = 654</text>
<text text-anchor="start" x="1381" y="-408.8" font-family="Helvetica,sans-Serif" font-size="14.00">value = 13461.165</text>
</g>
<!-- 1 -->
<g id="node2" class="node">
<title>1</title>
<path fill="#fbeee4" stroke="black" d="M1166,-365C1166,-365 1020,-365 1020,-365 1014,-365 1008,-359 1008,-353 1008,-353 1008,-309 1008,-309 1008,-303 1014,-297 1020,-297 1020,-297 1166,-297 1166,-297 1172,-297 1178,-303 1178,-309 1178,-309 1178,-353 1178,-353 1178,-359 1172,-365 1166,-365"/>
<text text-anchor="start" x="1053.5" y="-349.8" font-family="Helvetica,sans-Serif" font-size="14.00">age ≤ 42.5</text>
<text text-anchor="start" x="1016" y="-334.8" font-family="Helvetica,sans-Serif" font-size="14.00">mse = 39949726.123</text>
<text text-anchor="start" x="1040" y="-319.8" font-family="Helvetica,sans-Serif" font-size="14.00">samples = 522</text>
<text text-anchor="start" x="1029.5" y="-304.8" font-family="Helvetica,sans-Serif" font-size="14.00">value = 8728.108</text>
</g>
<!-- 0&#45;&gt;1 -->
<g id="edge1" class="edge">
<title>0&#45;&gt;1</title>
<path fill="none" stroke="black" d="M1359.17,-408.26C1306.91,-393.29 1241.08,-374.43 1187.97,-359.21"/>
<polygon fill="black" stroke="black" points="1188.78,-355.8 1178.21,-356.41 1186.86,-362.53 1188.78,-355.8"/>
<text text-anchor="middle" x="1190.33" y="-374.58" font-family="Helvetica,sans-Serif" font-size="14.00">True</text>
</g>
<!-- 16 -->
<g id="node17" class="node">
<title>16</title>
<path fill="#eeab7b" stroke="black" d="M1884.5,-365C1884.5,-365 1729.5,-365 1729.5,-365 1723.5,-365 1717.5,-359 1717.5,-353 1717.5,-353 1717.5,-309 1717.5,-309 1717.5,-303 1723.5,-297 1729.5,-297 1729.5,-297 1884.5,-297 1884.5,-297 1890.5,-297 1896.5,-303 1896.5,-309 1896.5,-309 1896.5,-353 1896.5,-353 1896.5,-359 1890.5,-365 1884.5,-365"/>
<text text-anchor="start" x="1767.5" y="-349.8" font-family="Helvetica,sans-Serif" font-size="14.00">bmi ≤ 30.1</text>
<text text-anchor="start" x="1725.5" y="-334.8" font-family="Helvetica,sans-Serif" font-size="14.00">mse = 120941974.578</text>
<text text-anchor="start" x="1754" y="-319.8" font-family="Helvetica,sans-Serif" font-size="14.00">samples = 132</text>
<text text-anchor="start" x="1739" y="-304.8" font-family="Helvetica,sans-Serif" font-size="14.00">value = 32506.624</text>
</g>
<!-- 0&#45;&gt;16 -->
<g id="edge16" class="edge">
<title>0&#45;&gt;16</title>
<path fill="none" stroke="black" d="M1538.88,-408.39C1590.26,-393.75 1654.79,-375.37 1707.66,-360.3"/>
<polygon fill="black" stroke="black" points="1708.74,-363.64 1717.4,-357.53 1706.82,-356.9 1708.74,-363.64"/>
<text text-anchor="middle" x="1705.24" y="-375.67" font-family="Helvetica,sans-Serif" font-size="14.00">False</text>
</g>
<!-- 2 -->
<g id="node3" class="node">
<title>2</title>
<path fill="#fef9f6" stroke="black" d="M604,-261C604,-261 458,-261 458,-261 452,-261 446,-255 446,-249 446,-249 446,-205 446,-205 446,-199 452,-193 458,-193 458,-193 604,-193 604,-193 610,-193 616,-199 616,-205 616,-205 616,-249 616,-249 616,-255 610,-261 604,-261"/>
<text text-anchor="start" x="491.5" y="-245.8" font-family="Helvetica,sans-Serif" font-size="14.00">age ≤ 26.5</text>
<text text-anchor="start" x="454" y="-230.8" font-family="Helvetica,sans-Serif" font-size="14.00">mse = 15448773.426</text>
<text text-anchor="start" x="478" y="-215.8" font-family="Helvetica,sans-Serif" font-size="14.00">samples = 273</text>
<text text-anchor="start" x="467.5" y="-200.8" font-family="Helvetica,sans-Serif" font-size="14.00">value = 4704.334</text>
</g>
<!-- 1&#45;&gt;2 -->
<g id="edge2" class="edge">
<title>1&#45;&gt;2</title>
<path fill="none" stroke="black" d="M1007.95,-314.56C905.39,-295.95 733.5,-264.75 626.48,-245.33"/>
<polygon fill="black" stroke="black" points="626.8,-241.83 616.34,-243.49 625.55,-248.72 626.8,-241.83"/>
</g>
<!-- 9 -->
<g id="node10" class="node">
<title>9</title>
<path fill="#f9e2d2" stroke="black" d="M1166,-261C1166,-261 1020,-261 1020,-261 1014,-261 1008,-255 1008,-249 1008,-249 1008,-205 1008,-205 1008,-199 1014,-193 1020,-193 1020,-193 1166,-193 1166,-193 1172,-193 1178,-199 1178,-205 1178,-205 1178,-249 1178,-249 1178,-255 1172,-261 1166,-261"/>
<text text-anchor="start" x="1053.5" y="-245.8" font-family="Helvetica,sans-Serif" font-size="14.00">age ≤ 58.5</text>
<text text-anchor="start" x="1016" y="-230.8" font-family="Helvetica,sans-Serif" font-size="14.00">mse = 31297353.204</text>
<text text-anchor="start" x="1040" y="-215.8" font-family="Helvetica,sans-Serif" font-size="14.00">samples = 249</text>
<text text-anchor="start" x="1025" y="-200.8" font-family="Helvetica,sans-Serif" font-size="14.00">value = 12878.231</text>
</g>
<!-- 1&#45;&gt;9 -->
<g id="edge9" class="edge">
<title>1&#45;&gt;9</title>
<path fill="none" stroke="black" d="M1093,-296.88C1093,-288.78 1093,-279.98 1093,-271.47"/>
<polygon fill="black" stroke="black" points="1096.5,-271.3 1093,-261.3 1089.5,-271.3 1096.5,-271.3"/>
</g>
<!-- 3 -->
<g id="node4" class="node">
<title>3</title>
<path fill="#fffefd" stroke="black" d="M323.5,-157C323.5,-157 186.5,-157 186.5,-157 180.5,-157 174.5,-151 174.5,-145 174.5,-145 174.5,-101 174.5,-101 174.5,-95 180.5,-89 186.5,-89 186.5,-89 323.5,-89 323.5,-89 329.5,-89 335.5,-95 335.5,-101 335.5,-101 335.5,-145 335.5,-145 335.5,-151 329.5,-157 323.5,-157"/>
<text text-anchor="start" x="215.5" y="-141.8" font-family="Helvetica,sans-Serif" font-size="14.00">age ≤ 23.5</text>
<text text-anchor="start" x="182.5" y="-126.8" font-family="Helvetica,sans-Serif" font-size="14.00">mse = 8804844.401</text>
<text text-anchor="start" x="202" y="-111.8" font-family="Helvetica,sans-Serif" font-size="14.00">samples = 131</text>
<text text-anchor="start" x="191.5" y="-96.8" font-family="Helvetica,sans-Serif" font-size="14.00">value = 2922.816</text>
</g>
<!-- 2&#45;&gt;3 -->
<g id="edge3" class="edge">
<title>2&#45;&gt;3</title>
<path fill="none" stroke="black" d="M445.94,-194.56C413.94,-182.74 377.45,-169.26 345.02,-157.27"/>
<polygon fill="black" stroke="black" points="346.13,-153.95 335.53,-153.76 343.7,-160.51 346.13,-153.95"/>
</g>
<!-- 6 -->
<g id="node7" class="node">
<title>6</title>
<path fill="#fdf4ee" stroke="black" d="M604,-157C604,-157 458,-157 458,-157 452,-157 446,-151 446,-145 446,-145 446,-101 446,-101 446,-95 452,-89 458,-89 458,-89 604,-89 604,-89 610,-89 616,-95 616,-101 616,-101 616,-145 616,-145 616,-151 610,-157 604,-157"/>
<text text-anchor="start" x="491.5" y="-141.8" font-family="Helvetica,sans-Serif" font-size="14.00">age ≤ 32.5</text>
<text text-anchor="start" x="454" y="-126.8" font-family="Helvetica,sans-Serif" font-size="14.00">mse = 15784620.542</text>
<text text-anchor="start" x="478" y="-111.8" font-family="Helvetica,sans-Serif" font-size="14.00">samples = 142</text>
<text text-anchor="start" x="467.5" y="-96.8" font-family="Helvetica,sans-Serif" font-size="14.00">value = 6460.994</text>
</g>
<!-- 2&#45;&gt;6 -->
<g id="edge6" class="edge">
<title>2&#45;&gt;6</title>
<path fill="none" stroke="black" d="M531,-192.88C531,-184.78 531,-175.98 531,-167.47"/>
<polygon fill="black" stroke="black" points="534.5,-167.3 531,-157.3 527.5,-167.3 534.5,-167.3"/>
</g>
<!-- 4 -->
<g id="node5" class="node">
<title>4</title>
<path fill="#ffffff" stroke="black" d="M140,-53C140,-53 12,-53 12,-53 6,-53 0,-47 0,-41 0,-41 0,-12 0,-12 0,-6 6,0 12,0 12,0 140,0 140,0 146,0 152,-6 152,-12 152,-12 152,-41 152,-41 152,-47 146,-53 140,-53"/>
<text text-anchor="start" x="8" y="-37.8" font-family="Helvetica,sans-Serif" font-size="14.00">mse = 6506033.51</text>
<text text-anchor="start" x="27.5" y="-22.8" font-family="Helvetica,sans-Serif" font-size="14.00">samples = 97</text>
<text text-anchor="start" x="12.5" y="-7.8" font-family="Helvetica,sans-Serif" font-size="14.00">value = 2570.698</text>
</g>
<!-- 3&#45;&gt;4 -->
<g id="edge4" class="edge">
<title>3&#45;&gt;4</title>
<path fill="none" stroke="black" d="M192.39,-88.95C173.25,-78.84 152.29,-67.78 133.5,-57.86"/>
<polygon fill="black" stroke="black" points="134.94,-54.66 124.47,-53.09 131.68,-60.85 134.94,-54.66"/>
</g>
<!-- 5 -->
<g id="node6" class="node">
<title>5</title>
<path fill="#fefbf8" stroke="black" d="M328,-53C328,-53 182,-53 182,-53 176,-53 170,-47 170,-41 170,-41 170,-12 170,-12 170,-6 176,0 182,0 182,0 328,0 328,0 334,0 340,-6 340,-12 340,-12 340,-41 340,-41 340,-47 334,-53 328,-53"/>
<text text-anchor="start" x="178" y="-37.8" font-family="Helvetica,sans-Serif" font-size="14.00">mse = 14788117.934</text>
<text text-anchor="start" x="206.5" y="-22.8" font-family="Helvetica,sans-Serif" font-size="14.00">samples = 34</text>
<text text-anchor="start" x="191.5" y="-7.8" font-family="Helvetica,sans-Serif" font-size="14.00">value = 4125.885</text>
</g>
<!-- 3&#45;&gt;5 -->
<g id="edge5" class="edge">
<title>3&#45;&gt;5</title>
<path fill="none" stroke="black" d="M255,-88.95C255,-80.72 255,-71.85 255,-63.48"/>
<polygon fill="black" stroke="black" points="258.5,-63.24 255,-53.24 251.5,-63.24 258.5,-63.24"/>
</g>
<!-- 7 -->
<g id="node8" class="node">
<title>7</title>
<path fill="#fdf8f3" stroke="black" d="M507.5,-53C507.5,-53 370.5,-53 370.5,-53 364.5,-53 358.5,-47 358.5,-41 358.5,-41 358.5,-12 358.5,-12 358.5,-6 364.5,0 370.5,0 370.5,0 507.5,0 507.5,0 513.5,0 519.5,-6 519.5,-12 519.5,-12 519.5,-41 519.5,-41 519.5,-47 513.5,-53 507.5,-53"/>
<text text-anchor="start" x="366.5" y="-37.8" font-family="Helvetica,sans-Serif" font-size="14.00">mse = 15574664.88</text>
<text text-anchor="start" x="390.5" y="-22.8" font-family="Helvetica,sans-Serif" font-size="14.00">samples = 55</text>
<text text-anchor="start" x="375.5" y="-7.8" font-family="Helvetica,sans-Serif" font-size="14.00">value = 5228.715</text>
</g>
<!-- 6&#45;&gt;7 -->
<g id="edge7" class="edge">
<title>6&#45;&gt;7</title>
<path fill="none" stroke="black" d="M498.82,-88.95C489.83,-79.71 480.06,-69.67 471.07,-60.44"/>
<polygon fill="black" stroke="black" points="473.54,-57.96 464.06,-53.24 468.52,-62.84 473.54,-57.96"/>
</g>
<!-- 8 -->
<g id="node9" class="node">
<title>8</title>
<path fill="#fcf2ea" stroke="black" d="M696,-53C696,-53 550,-53 550,-53 544,-53 538,-47 538,-41 538,-41 538,-12 538,-12 538,-6 544,0 550,0 550,0 696,0 696,0 702,0 708,-6 708,-12 708,-12 708,-41 708,-41 708,-47 702,-53 696,-53"/>
<text text-anchor="start" x="546" y="-37.8" font-family="Helvetica,sans-Serif" font-size="14.00">mse = 14006488.329</text>
<text text-anchor="start" x="574.5" y="-22.8" font-family="Helvetica,sans-Serif" font-size="14.00">samples = 87</text>
<text text-anchor="start" x="559.5" y="-7.8" font-family="Helvetica,sans-Serif" font-size="14.00">value = 7365.328</text>
</g>
<!-- 6&#45;&gt;8 -->
<g id="edge8" class="edge">
<title>6&#45;&gt;8</title>
<path fill="none" stroke="black" d="M563.18,-88.95C572.17,-79.71 581.94,-69.67 590.93,-60.44"/>
<polygon fill="black" stroke="black" points="593.48,-62.84 597.94,-53.24 588.46,-57.96 593.48,-62.84"/>
</g>
<!-- 10 -->
<g id="node11" class="node">
<title>10</title>
<path fill="#fae5d6" stroke="black" d="M1072,-157C1072,-157 926,-157 926,-157 920,-157 914,-151 914,-145 914,-145 914,-101 914,-101 914,-95 920,-89 926,-89 926,-89 1072,-89 1072,-89 1078,-89 1084,-95 1084,-101 1084,-101 1084,-145 1084,-145 1084,-151 1078,-157 1072,-157"/>
<text text-anchor="start" x="959.5" y="-141.8" font-family="Helvetica,sans-Serif" font-size="14.00">age ≤ 51.5</text>
<text text-anchor="start" x="922" y="-126.8" font-family="Helvetica,sans-Serif" font-size="14.00">mse = 29918598.674</text>
<text text-anchor="start" x="946" y="-111.8" font-family="Helvetica,sans-Serif" font-size="14.00">samples = 189</text>
<text text-anchor="start" x="931" y="-96.8" font-family="Helvetica,sans-Serif" font-size="14.00">value = 11989.148</text>
</g>
<!-- 9&#45;&gt;10 -->
<g id="edge10" class="edge">
<title>9&#45;&gt;10</title>
<path fill="none" stroke="black" d="M1062.48,-192.88C1054.19,-183.89 1045.12,-174.04 1036.49,-164.68"/>
<polygon fill="black" stroke="black" points="1039.04,-162.28 1029.69,-157.3 1033.89,-167.02 1039.04,-162.28"/>
</g>
<!-- 13 -->
<g id="node14" class="node">
<title>13</title>
<path fill="#f8dbc6" stroke="black" d="M1260,-157C1260,-157 1114,-157 1114,-157 1108,-157 1102,-151 1102,-145 1102,-145 1102,-101 1102,-101 1102,-95 1108,-89 1114,-89 1114,-89 1260,-89 1260,-89 1266,-89 1272,-95 1272,-101 1272,-101 1272,-145 1272,-145 1272,-151 1266,-157 1260,-157"/>
<text text-anchor="start" x="1137" y="-141.8" font-family="Helvetica,sans-Serif" font-size="14.00">children ≤ 3.5</text>
<text text-anchor="start" x="1110" y="-126.8" font-family="Helvetica,sans-Serif" font-size="14.00">mse = 26027605.656</text>
<text text-anchor="start" x="1138.5" y="-111.8" font-family="Helvetica,sans-Serif" font-size="14.00">samples = 60</text>
<text text-anchor="start" x="1119" y="-96.8" font-family="Helvetica,sans-Serif" font-size="14.00">value = 15528.381</text>
</g>
<!-- 9&#45;&gt;13 -->
<g id="edge13" class="edge">
<title>9&#45;&gt;13</title>
<path fill="none" stroke="black" d="M1123.52,-192.88C1131.81,-183.89 1140.88,-174.04 1149.51,-164.68"/>
<polygon fill="black" stroke="black" points="1152.11,-167.02 1156.31,-157.3 1146.96,-162.28 1152.11,-167.02"/>
</g>
<!-- 11 -->
<g id="node12" class="node">
<title>11</title>
<path fill="#fae7da" stroke="black" d="M884,-53C884,-53 738,-53 738,-53 732,-53 726,-47 726,-41 726,-41 726,-12 726,-12 726,-6 732,0 738,0 738,0 884,0 884,0 890,0 896,-6 896,-12 896,-12 896,-41 896,-41 896,-47 890,-53 884,-53"/>
<text text-anchor="start" x="734" y="-37.8" font-family="Helvetica,sans-Serif" font-size="14.00">mse = 32217105.197</text>
<text text-anchor="start" x="758" y="-22.8" font-family="Helvetica,sans-Serif" font-size="14.00">samples = 100</text>
<text text-anchor="start" x="743" y="-7.8" font-family="Helvetica,sans-Serif" font-size="14.00">value = 11048.756</text>
</g>
<!-- 10&#45;&gt;11 -->
<g id="edge11" class="edge">
<title>10&#45;&gt;11</title>
<path fill="none" stroke="black" d="M933.25,-88.95C912.95,-78.75 890.72,-67.57 870.85,-57.59"/>
<polygon fill="black" stroke="black" points="872.41,-54.45 861.9,-53.09 869.27,-60.71 872.41,-54.45"/>
</g>
<!-- 12 -->
<g id="node13" class="node">
<title>12</title>
<path fill="#f9e2d1" stroke="black" d="M1072,-53C1072,-53 926,-53 926,-53 920,-53 914,-47 914,-41 914,-41 914,-12 914,-12 914,-6 920,0 926,0 926,0 1072,0 1072,0 1078,0 1084,-6 1084,-12 1084,-12 1084,-41 1084,-41 1084,-47 1078,-53 1072,-53"/>
<text text-anchor="start" x="922" y="-37.8" font-family="Helvetica,sans-Serif" font-size="14.00">mse = 25227511.205</text>
<text text-anchor="start" x="950.5" y="-22.8" font-family="Helvetica,sans-Serif" font-size="14.00">samples = 89</text>
<text text-anchor="start" x="935.5" y="-7.8" font-family="Helvetica,sans-Serif" font-size="14.00">value = 13045.48</text>
</g>
<!-- 10&#45;&gt;12 -->
<g id="edge12" class="edge">
<title>10&#45;&gt;12</title>
<path fill="none" stroke="black" d="M999,-88.95C999,-80.72 999,-71.85 999,-63.48"/>
<polygon fill="black" stroke="black" points="1002.5,-63.24 999,-53.24 995.5,-63.24 1002.5,-63.24"/>
</g>
<!-- 14 -->
<g id="node15" class="node">
<title>14</title>
<path fill="#f8dbc7" stroke="black" d="M1260,-53C1260,-53 1114,-53 1114,-53 1108,-53 1102,-47 1102,-41 1102,-41 1102,-12 1102,-12 1102,-6 1108,0 1114,0 1114,0 1260,0 1260,0 1266,0 1272,-6 1272,-12 1272,-12 1272,-41 1272,-41 1272,-47 1266,-53 1260,-53"/>
<text text-anchor="start" x="1110" y="-37.8" font-family="Helvetica,sans-Serif" font-size="14.00">mse = 21935783.456</text>
<text text-anchor="start" x="1138.5" y="-22.8" font-family="Helvetica,sans-Serif" font-size="14.00">samples = 59</text>
<text text-anchor="start" x="1119" y="-7.8" font-family="Helvetica,sans-Serif" font-size="14.00">value = 15323.993</text>
</g>
<!-- 13&#45;&gt;14 -->
<g id="edge14" class="edge">
<title>13&#45;&gt;14</title>
<path fill="none" stroke="black" d="M1187,-88.95C1187,-80.72 1187,-71.85 1187,-63.48"/>
<polygon fill="black" stroke="black" points="1190.5,-63.24 1187,-53.24 1183.5,-63.24 1190.5,-63.24"/>
</g>
<!-- 15 -->
<g id="node16" class="node">
<title>15</title>
<path fill="#eba069" stroke="black" d="M1430,-53C1430,-53 1302,-53 1302,-53 1296,-53 1290,-47 1290,-41 1290,-41 1290,-12 1290,-12 1290,-6 1296,0 1302,0 1302,0 1430,0 1430,0 1436,0 1442,-6 1442,-12 1442,-12 1442,-41 1442,-41 1442,-47 1436,-53 1430,-53"/>
<text text-anchor="start" x="1329.5" y="-37.8" font-family="Helvetica,sans-Serif" font-size="14.00">mse = 0.0</text>
<text text-anchor="start" x="1322" y="-22.8" font-family="Helvetica,sans-Serif" font-size="14.00">samples = 1</text>
<text text-anchor="start" x="1298" y="-7.8" font-family="Helvetica,sans-Serif" font-size="14.00">value = 36580.282</text>
</g>
<!-- 13&#45;&gt;15 -->
<g id="edge15" class="edge">
<title>13&#45;&gt;15</title>
<path fill="none" stroke="black" d="M1249.61,-88.95C1268.75,-78.84 1289.71,-67.78 1308.5,-57.86"/>
<polygon fill="black" stroke="black" points="1310.32,-60.85 1317.53,-53.09 1307.06,-54.66 1310.32,-60.85"/>
</g>
<!-- 17 -->
<g id="node18" class="node">
<title>17</title>
<path fill="#f4c9ab" stroke="black" d="M1880,-261C1880,-261 1734,-261 1734,-261 1728,-261 1722,-255 1722,-249 1722,-249 1722,-205 1722,-205 1722,-199 1728,-193 1734,-193 1734,-193 1880,-193 1880,-193 1886,-193 1892,-199 1892,-205 1892,-205 1892,-249 1892,-249 1892,-255 1886,-261 1880,-261"/>
<text text-anchor="start" x="1767.5" y="-245.8" font-family="Helvetica,sans-Serif" font-size="14.00">age ≤ 41.0</text>
<text text-anchor="start" x="1730" y="-230.8" font-family="Helvetica,sans-Serif" font-size="14.00">mse = 27615588.309</text>
<text text-anchor="start" x="1758.5" y="-215.8" font-family="Helvetica,sans-Serif" font-size="14.00">samples = 64</text>
<text text-anchor="start" x="1739" y="-200.8" font-family="Helvetica,sans-Serif" font-size="14.00">value = 21690.547</text>
</g>
<!-- 16&#45;&gt;17 -->
<g id="edge17" class="edge">
<title>16&#45;&gt;17</title>
<path fill="none" stroke="black" d="M1807,-296.88C1807,-288.78 1807,-279.98 1807,-271.47"/>
<polygon fill="black" stroke="black" points="1810.5,-271.3 1807,-261.3 1803.5,-271.3 1810.5,-271.3"/>
</g>
<!-- 24 -->
<g id="node25" class="node">
<title>24</title>
<path fill="#e89254" stroke="black" d="M2416,-261C2416,-261 2270,-261 2270,-261 2264,-261 2258,-255 2258,-249 2258,-249 2258,-205 2258,-205 2258,-199 2264,-193 2270,-193 2270,-193 2416,-193 2416,-193 2422,-193 2428,-199 2428,-205 2428,-205 2428,-249 2428,-249 2428,-255 2422,-261 2416,-261"/>
<text text-anchor="start" x="2303.5" y="-245.8" font-family="Helvetica,sans-Serif" font-size="14.00">age ≤ 50.5</text>
<text text-anchor="start" x="2266" y="-230.8" font-family="Helvetica,sans-Serif" font-size="14.00">mse = 19983037.904</text>
<text text-anchor="start" x="2294.5" y="-215.8" font-family="Helvetica,sans-Serif" font-size="14.00">samples = 68</text>
<text text-anchor="start" x="2275" y="-200.8" font-family="Helvetica,sans-Serif" font-size="14.00">value = 41520.021</text>
</g>
<!-- 16&#45;&gt;24 -->
<g id="edge24" class="edge">
<title>16&#45;&gt;24</title>
<path fill="none" stroke="black" d="M1896.71,-312.93C1993.96,-294.42 2148.51,-265.01 2247.83,-246.11"/>
<polygon fill="black" stroke="black" points="2248.7,-249.51 2257.87,-244.2 2247.39,-242.63 2248.7,-249.51"/>
</g>
<!-- 18 -->
<g id="node19" class="node">
<title>18</title>
<path fill="#f6d3ba" stroke="black" d="M1783.5,-157C1783.5,-157 1646.5,-157 1646.5,-157 1640.5,-157 1634.5,-151 1634.5,-145 1634.5,-145 1634.5,-101 1634.5,-101 1634.5,-95 1640.5,-89 1646.5,-89 1646.5,-89 1783.5,-89 1783.5,-89 1789.5,-89 1795.5,-95 1795.5,-101 1795.5,-101 1795.5,-145 1795.5,-145 1795.5,-151 1789.5,-157 1783.5,-157"/>
<text text-anchor="start" x="1675.5" y="-141.8" font-family="Helvetica,sans-Serif" font-size="14.00">age ≤ 29.5</text>
<text text-anchor="start" x="1642.5" y="-126.8" font-family="Helvetica,sans-Serif" font-size="14.00">mse = 9798687.889</text>
<text text-anchor="start" x="1666.5" y="-111.8" font-family="Helvetica,sans-Serif" font-size="14.00">samples = 33</text>
<text text-anchor="start" x="1647" y="-96.8" font-family="Helvetica,sans-Serif" font-size="14.00">value = 18213.314</text>
</g>
<!-- 17&#45;&gt;18 -->
<g id="edge18" class="edge">
<title>17&#45;&gt;18</title>
<path fill="none" stroke="black" d="M1777.13,-192.88C1769.1,-183.98 1760.31,-174.24 1751.94,-164.96"/>
<polygon fill="black" stroke="black" points="1754.33,-162.38 1745.03,-157.3 1749.13,-167.07 1754.33,-162.38"/>
</g>
<!-- 21 -->
<g id="node22" class="node">
<title>21</title>
<path fill="#f2c09b" stroke="black" d="M1972,-157C1972,-157 1826,-157 1826,-157 1820,-157 1814,-151 1814,-145 1814,-145 1814,-101 1814,-101 1814,-95 1820,-89 1826,-89 1826,-89 1972,-89 1972,-89 1978,-89 1984,-95 1984,-101 1984,-101 1984,-145 1984,-145 1984,-151 1978,-157 1972,-157"/>
<text text-anchor="start" x="1850.5" y="-141.8" font-family="Helvetica,sans-Serif" font-size="14.00">bmi ≤ 25.955</text>
<text text-anchor="start" x="1822" y="-126.8" font-family="Helvetica,sans-Serif" font-size="14.00">mse = 20852028.493</text>
<text text-anchor="start" x="1850.5" y="-111.8" font-family="Helvetica,sans-Serif" font-size="14.00">samples = 31</text>
<text text-anchor="start" x="1831" y="-96.8" font-family="Helvetica,sans-Serif" font-size="14.00">value = 25241.763</text>
</g>
<!-- 17&#45;&gt;21 -->
<g id="edge21" class="edge">
<title>17&#45;&gt;21</title>
<path fill="none" stroke="black" d="M1836.87,-192.88C1844.9,-183.98 1853.69,-174.24 1862.06,-164.96"/>
<polygon fill="black" stroke="black" points="1864.87,-167.07 1868.97,-157.3 1859.67,-162.38 1864.87,-167.07"/>
</g>
<!-- 19 -->
<g id="node20" class="node">
<title>19</title>
<path fill="#f7d8c2" stroke="black" d="M1609.5,-53C1609.5,-53 1472.5,-53 1472.5,-53 1466.5,-53 1460.5,-47 1460.5,-41 1460.5,-41 1460.5,-12 1460.5,-12 1460.5,-6 1466.5,0 1472.5,0 1472.5,0 1609.5,0 1609.5,0 1615.5,0 1621.5,-6 1621.5,-12 1621.5,-12 1621.5,-41 1621.5,-41 1621.5,-47 1615.5,-53 1609.5,-53"/>
<text text-anchor="start" x="1468.5" y="-37.8" font-family="Helvetica,sans-Serif" font-size="14.00">mse = 2633859.864</text>
<text text-anchor="start" x="1492.5" y="-22.8" font-family="Helvetica,sans-Serif" font-size="14.00">samples = 18</text>
<text text-anchor="start" x="1473" y="-7.8" font-family="Helvetica,sans-Serif" font-size="14.00">value = 16366.895</text>
</g>
<!-- 18&#45;&gt;19 -->
<g id="edge19" class="edge">
<title>18&#45;&gt;19</title>
<path fill="none" stroke="black" d="M1654.14,-88.95C1635.7,-78.93 1615.53,-67.98 1597.39,-58.13"/>
<polygon fill="black" stroke="black" points="1598.57,-54.78 1588.11,-53.09 1595.23,-60.93 1598.57,-54.78"/>
</g>
<!-- 20 -->
<g id="node21" class="node">
<title>20</title>
<path fill="#f5cdb0" stroke="black" d="M1788.5,-53C1788.5,-53 1651.5,-53 1651.5,-53 1645.5,-53 1639.5,-47 1639.5,-41 1639.5,-41 1639.5,-12 1639.5,-12 1639.5,-6 1645.5,0 1651.5,0 1651.5,0 1788.5,0 1788.5,0 1794.5,0 1800.5,-6 1800.5,-12 1800.5,-12 1800.5,-41 1800.5,-41 1800.5,-47 1794.5,-53 1788.5,-53"/>
<text text-anchor="start" x="1647.5" y="-37.8" font-family="Helvetica,sans-Serif" font-size="14.00">mse = 8991542.415</text>
<text text-anchor="start" x="1671.5" y="-22.8" font-family="Helvetica,sans-Serif" font-size="14.00">samples = 15</text>
<text text-anchor="start" x="1652" y="-7.8" font-family="Helvetica,sans-Serif" font-size="14.00">value = 20587.283</text>
</g>
<!-- 18&#45;&gt;20 -->
<g id="edge20" class="edge">
<title>18&#45;&gt;20</title>
<path fill="none" stroke="black" d="M1716.75,-88.95C1717.18,-80.72 1717.65,-71.85 1718.1,-63.48"/>
<polygon fill="black" stroke="black" points="1721.6,-63.41 1718.64,-53.24 1714.61,-63.04 1721.6,-63.41"/>
</g>
<!-- 22 -->
<g id="node23" class="node">
<title>22</title>
<path fill="#f3c6a5" stroke="black" d="M1959,-53C1959,-53 1831,-53 1831,-53 1825,-53 1819,-47 1819,-41 1819,-41 1819,-12 1819,-12 1819,-6 1825,0 1831,0 1831,0 1959,0 1959,0 1965,0 1971,-6 1971,-12 1971,-12 1971,-41 1971,-41 1971,-47 1965,-53 1959,-53"/>
<text text-anchor="start" x="1827" y="-37.8" font-family="Helvetica,sans-Serif" font-size="14.00">mse = 4626678.06</text>
<text text-anchor="start" x="1846.5" y="-22.8" font-family="Helvetica,sans-Serif" font-size="14.00">samples = 16</text>
<text text-anchor="start" x="1827" y="-7.8" font-family="Helvetica,sans-Serif" font-size="14.00">value = 22964.755</text>
</g>
<!-- 21&#45;&gt;22 -->
<g id="edge22" class="edge">
<title>21&#45;&gt;22</title>
<path fill="none" stroke="black" d="M1897.6,-88.95C1897.25,-80.72 1896.88,-71.85 1896.52,-63.48"/>
<polygon fill="black" stroke="black" points="1900.01,-63.08 1896.09,-53.24 1893.02,-63.38 1900.01,-63.08"/>
</g>
<!-- 23 -->
<g id="node24" class="node">
<title>23</title>
<path fill="#f1ba93" stroke="black" d="M2147,-53C2147,-53 2001,-53 2001,-53 1995,-53 1989,-47 1989,-41 1989,-41 1989,-12 1989,-12 1989,-6 1995,0 2001,0 2001,0 2147,0 2147,0 2153,0 2159,-6 2159,-12 2159,-12 2159,-41 2159,-41 2159,-47 2153,-53 2147,-53"/>
<text text-anchor="start" x="1997" y="-37.8" font-family="Helvetica,sans-Serif" font-size="14.00">mse = 26387051.372</text>
<text text-anchor="start" x="2025.5" y="-22.8" font-family="Helvetica,sans-Serif" font-size="14.00">samples = 15</text>
<text text-anchor="start" x="2006" y="-7.8" font-family="Helvetica,sans-Serif" font-size="14.00">value = 27080.886</text>
</g>
<!-- 21&#45;&gt;23 -->
<g id="edge23" class="edge">
<title>21&#45;&gt;23</title>
<path fill="none" stroke="black" d="M1960.21,-88.95C1978.93,-78.84 1999.42,-67.78 2017.79,-57.86"/>
<polygon fill="black" stroke="black" points="2019.48,-60.92 2026.62,-53.09 2016.16,-54.76 2019.48,-60.92"/>
</g>
<!-- 25 -->
<g id="node26" class="node">
<title>25</title>
<path fill="#e9975b" stroke="black" d="M2416,-157C2416,-157 2270,-157 2270,-157 2264,-157 2258,-151 2258,-145 2258,-145 2258,-101 2258,-101 2258,-95 2264,-89 2270,-89 2270,-89 2416,-89 2416,-89 2422,-89 2428,-95 2428,-101 2428,-101 2428,-145 2428,-145 2428,-151 2422,-157 2416,-157"/>
<text text-anchor="start" x="2299" y="-141.8" font-family="Helvetica,sans-Serif" font-size="14.00">bmi ≤ 37.93</text>
<text text-anchor="start" x="2266" y="-126.8" font-family="Helvetica,sans-Serif" font-size="14.00">mse = 14072775.893</text>
<text text-anchor="start" x="2294.5" y="-111.8" font-family="Helvetica,sans-Serif" font-size="14.00">samples = 52</text>
<text text-anchor="start" x="2275" y="-96.8" font-family="Helvetica,sans-Serif" font-size="14.00">value = 39782.229</text>
</g>
<!-- 24&#45;&gt;25 -->
<g id="edge25" class="edge">
<title>24&#45;&gt;25</title>
<path fill="none" stroke="black" d="M2343,-192.88C2343,-184.78 2343,-175.98 2343,-167.47"/>
<polygon fill="black" stroke="black" points="2346.5,-167.3 2343,-157.3 2339.5,-167.3 2346.5,-167.3"/>
</g>
<!-- 28 -->
<g id="node29" class="node">
<title>28</title>
<path fill="#e6843e" stroke="black" d="M2680.5,-157C2680.5,-157 2543.5,-157 2543.5,-157 2537.5,-157 2531.5,-151 2531.5,-145 2531.5,-145 2531.5,-101 2531.5,-101 2531.5,-95 2537.5,-89 2543.5,-89 2543.5,-89 2680.5,-89 2680.5,-89 2686.5,-89 2692.5,-95 2692.5,-101 2692.5,-101 2692.5,-145 2692.5,-145 2692.5,-151 2686.5,-157 2680.5,-157"/>
<text text-anchor="start" x="2572.5" y="-141.8" font-family="Helvetica,sans-Serif" font-size="14.00">age ≤ 56.0</text>
<text text-anchor="start" x="2539.5" y="-126.8" font-family="Helvetica,sans-Serif" font-size="14.00">mse = 4399821.556</text>
<text text-anchor="start" x="2563.5" y="-111.8" font-family="Helvetica,sans-Serif" font-size="14.00">samples = 16</text>
<text text-anchor="start" x="2544" y="-96.8" font-family="Helvetica,sans-Serif" font-size="14.00">value = 46385.838</text>
</g>
<!-- 24&#45;&gt;28 -->
<g id="edge28" class="edge">
<title>24&#45;&gt;28</title>
<path fill="none" stroke="black" d="M2428.11,-193.73C2457.84,-182.46 2491.3,-169.77 2521.45,-158.34"/>
<polygon fill="black" stroke="black" points="2523,-161.49 2531.11,-154.67 2520.52,-154.95 2523,-161.49"/>
</g>
<!-- 26 -->
<g id="node27" class="node">
<title>26</title>
<path fill="#ea9a61" stroke="black" d="M2326.5,-53C2326.5,-53 2189.5,-53 2189.5,-53 2183.5,-53 2177.5,-47 2177.5,-41 2177.5,-41 2177.5,-12 2177.5,-12 2177.5,-6 2183.5,0 2189.5,0 2189.5,0 2326.5,0 2326.5,0 2332.5,0 2338.5,-6 2338.5,-12 2338.5,-12 2338.5,-41 2338.5,-41 2338.5,-47 2332.5,-53 2326.5,-53"/>
<text text-anchor="start" x="2185.5" y="-37.8" font-family="Helvetica,sans-Serif" font-size="14.00">mse = 9837135.312</text>
<text text-anchor="start" x="2209.5" y="-22.8" font-family="Helvetica,sans-Serif" font-size="14.00">samples = 40</text>
<text text-anchor="start" x="2190" y="-7.8" font-family="Helvetica,sans-Serif" font-size="14.00">value = 38578.931</text>
</g>
<!-- 25&#45;&gt;26 -->
<g id="edge26" class="edge">
<title>25&#45;&gt;26</title>
<path fill="none" stroke="black" d="M2313.27,-88.95C2305.04,-79.8 2296.11,-69.87 2287.87,-60.71"/>
<polygon fill="black" stroke="black" points="2290.44,-58.33 2281.15,-53.24 2285.23,-63.01 2290.44,-58.33"/>
</g>
<!-- 27 -->
<g id="node28" class="node">
<title>27</title>
<path fill="#e78b49" stroke="black" d="M2505.5,-53C2505.5,-53 2368.5,-53 2368.5,-53 2362.5,-53 2356.5,-47 2356.5,-41 2356.5,-41 2356.5,-12 2356.5,-12 2356.5,-6 2362.5,0 2368.5,0 2368.5,0 2505.5,0 2505.5,0 2511.5,0 2517.5,-6 2517.5,-12 2517.5,-12 2517.5,-41 2517.5,-41 2517.5,-47 2511.5,-53 2505.5,-53"/>
<text text-anchor="start" x="2364.5" y="-37.8" font-family="Helvetica,sans-Serif" font-size="14.00">mse = 6663741.434</text>
<text text-anchor="start" x="2388.5" y="-22.8" font-family="Helvetica,sans-Serif" font-size="14.00">samples = 12</text>
<text text-anchor="start" x="2369" y="-7.8" font-family="Helvetica,sans-Serif" font-size="14.00">value = 43898.775</text>
</g>
<!-- 25&#45;&gt;27 -->
<g id="edge27" class="edge">
<title>25&#45;&gt;27</title>
<path fill="none" stroke="black" d="M2375.88,-88.95C2385.07,-79.71 2395.05,-69.67 2404.24,-60.44"/>
<polygon fill="black" stroke="black" points="2406.83,-62.79 2411.4,-53.24 2401.87,-57.86 2406.83,-62.79"/>
</g>
<!-- 29 -->
<g id="node30" class="node">
<title>29</title>
<path fill="#e78c4a" stroke="black" d="M2676,-53C2676,-53 2548,-53 2548,-53 2542,-53 2536,-47 2536,-41 2536,-41 2536,-12 2536,-12 2536,-6 2542,0 2548,0 2548,0 2676,0 2676,0 2682,0 2688,-6 2688,-12 2688,-12 2688,-41 2688,-41 2688,-47 2682,-53 2676,-53"/>
<text text-anchor="start" x="2544" y="-37.8" font-family="Helvetica,sans-Serif" font-size="14.00">mse = 851667.204</text>
<text text-anchor="start" x="2568" y="-22.8" font-family="Helvetica,sans-Serif" font-size="14.00">samples = 4</text>
<text text-anchor="start" x="2544" y="-7.8" font-family="Helvetica,sans-Serif" font-size="14.00">value = 43646.009</text>
</g>
<!-- 28&#45;&gt;29 -->
<g id="edge29" class="edge">
<title>28&#45;&gt;29</title>
<path fill="none" stroke="black" d="M2612,-88.95C2612,-80.72 2612,-71.85 2612,-63.48"/>
<polygon fill="black" stroke="black" points="2615.5,-63.24 2612,-53.24 2608.5,-63.24 2615.5,-63.24"/>
</g>
<!-- 30 -->
<g id="node31" class="node">
<title>30</title>
<path fill="#e58139" stroke="black" d="M2855.5,-53C2855.5,-53 2718.5,-53 2718.5,-53 2712.5,-53 2706.5,-47 2706.5,-41 2706.5,-41 2706.5,-12 2706.5,-12 2706.5,-6 2712.5,0 2718.5,0 2718.5,0 2855.5,0 2855.5,0 2861.5,0 2867.5,-6 2867.5,-12 2867.5,-12 2867.5,-41 2867.5,-41 2867.5,-47 2861.5,-53 2855.5,-53"/>
<text text-anchor="start" x="2714.5" y="-37.8" font-family="Helvetica,sans-Serif" font-size="14.00">mse = 1324543.461</text>
<text text-anchor="start" x="2738.5" y="-22.8" font-family="Helvetica,sans-Serif" font-size="14.00">samples = 12</text>
<text text-anchor="start" x="2723.5" y="-7.8" font-family="Helvetica,sans-Serif" font-size="14.00">value = 47560.05</text>
</g>
<!-- 28&#45;&gt;30 -->
<g id="edge30" class="edge">
<title>28&#45;&gt;30</title>
<path fill="none" stroke="black" d="M2673.21,-88.95C2691.93,-78.84 2712.42,-67.78 2730.79,-57.86"/>
<polygon fill="black" stroke="black" points="2732.48,-60.92 2739.62,-53.09 2729.16,-54.76 2732.48,-60.92"/>
</g>
</g>
</svg>
