<?xml version="1.0" encoding="UTF-8" standalone="no"?>
<!DOCTYPE svg PUBLIC "-//W3C//DTD SVG 1.1//EN"
 "http://www.w3.org/Graphics/SVG/1.1/DTD/svg11.dtd">
<!-- Generated by graphviz version 2.49.0 (20210829.0051)
 -->
<!-- Title: Tree Pages: 1 -->
<svg width="720pt" height="434pt"
 viewBox="0.00 0.00 720.00 434.49" xmlns="http://www.w3.org/2000/svg" xmlns:xlink="http://www.w3.org/1999/xlink">
<g id="graph0" class="graph" transform="scale(0.78 0.78) rotate(0) translate(4 554)">
<title>Tree</title>
<polygon fill="white" stroke="transparent" points="-4,4 -4,-554 920.67,-554 920.67,4 -4,4"/>
<!-- 0 -->
<g id="node1" class="node">
<title>0</title>
<polygon fill="#f9e4d5" stroke="black" points="191.17,-336.5 12.17,-336.5 12.17,-268.5 191.17,-268.5 191.17,-336.5"/>
<text text-anchor="start" x="53.17" y="-321.3" font-family="Times,serif" font-size="14.00">smoker ≤ 0.5</text>
<text text-anchor="start" x="20.17" y="-306.3" font-family="Times,serif" font-size="14.00">mse = 158689319.997</text>
<text text-anchor="start" x="48.17" y="-291.3" font-family="Times,serif" font-size="14.00">samples = 649</text>
<text text-anchor="start" x="33.67" y="-276.3" font-family="Times,serif" font-size="14.00">value = 13877.262</text>
</g>
<!-- 1 -->
<g id="node2" class="node">
<title>1</title>
<polygon fill="#fdf3ec" stroke="black" points="431.67,-372.5 261.67,-372.5 261.67,-304.5 431.67,-304.5 431.67,-372.5"/>
<text text-anchor="start" x="307.17" y="-357.3" font-family="Times,serif" font-size="14.00">age ≤ 42.5</text>
<text text-anchor="start" x="269.67" y="-342.3" font-family="Times,serif" font-size="14.00">mse = 37882887.086</text>
<text text-anchor="start" x="293.17" y="-327.3" font-family="Times,serif" font-size="14.00">samples = 512</text>
<text text-anchor="start" x="283.17" y="-312.3" font-family="Times,serif" font-size="14.00">value = 8601.652</text>
</g>
<!-- 0&#45;&gt;1 -->
<g id="edge1" class="edge">
<title>0&#45;&gt;1</title>
<path fill="none" stroke="black" d="M191.43,-315.65C211.03,-318.55 231.86,-321.64 251.66,-324.57"/>
<polygon fill="black" stroke="black" points="251.19,-328.04 261.6,-326.05 252.22,-321.12 251.19,-328.04"/>
<text text-anchor="middle" x="241.52" y="-337.24" font-family="Times,serif" font-size="14.00">True</text>
</g>
<!-- 8 -->
<g id="node9" class="node">
<title>8</title>
<polygon fill="#eead7e" stroke="black" points="436.17,-245.5 257.17,-245.5 257.17,-177.5 436.17,-177.5 436.17,-245.5"/>
<text text-anchor="start" x="297.67" y="-230.3" font-family="Times,serif" font-size="14.00">bmi ≤ 30.125</text>
<text text-anchor="start" x="265.17" y="-215.3" font-family="Times,serif" font-size="14.00">mse = 132127377.425</text>
<text text-anchor="start" x="293.17" y="-200.3" font-family="Times,serif" font-size="14.00">samples = 137</text>
<text text-anchor="start" x="278.67" y="-185.3" font-family="Times,serif" font-size="14.00">value = 32897.226</text>
</g>
<!-- 0&#45;&gt;8 -->
<g id="edge8" class="edge">
<title>0&#45;&gt;8</title>
<path fill="none" stroke="black" d="M191.43,-269.26C209.75,-262.4 229.15,-255.13 247.78,-248.16"/>
<polygon fill="black" stroke="black" points="249.01,-251.43 257.15,-244.65 246.55,-244.88 249.01,-251.43"/>
<text text-anchor="middle" x="234.39" y="-230.59" font-family="Times,serif" font-size="14.00">False</text>
</g>
<!-- 2 -->
<g id="node3" class="node">
<title>2</title>
<polygon fill="#fefcfa" stroke="black" points="666.17,-486.5 505.17,-486.5 505.17,-418.5 666.17,-418.5 666.17,-486.5"/>
<text text-anchor="start" x="534.17" y="-471.3" font-family="Times,serif" font-size="14.00">children ≤ 1.5</text>
<text text-anchor="start" x="513.17" y="-456.3" font-family="Times,serif" font-size="14.00">mse = 28469067.11</text>
<text text-anchor="start" x="532.17" y="-441.3" font-family="Times,serif" font-size="14.00">samples = 288</text>
<text text-anchor="start" x="522.17" y="-426.3" font-family="Times,serif" font-size="14.00">value = 5687.883</text>
</g>
<!-- 1&#45;&gt;2 -->
<g id="edge2" class="edge">
<title>1&#45;&gt;2</title>
<path fill="none" stroke="black" d="M418.45,-372.55C445.54,-385.58 476.61,-400.52 504.51,-413.94"/>
<polygon fill="black" stroke="black" points="503.31,-417.25 513.84,-418.43 506.34,-410.94 503.31,-417.25"/>
</g>
<!-- 5 -->
<g id="node6" class="node">
<title>5</title>
<polygon fill="#fae9dc" stroke="black" points="670.67,-372.5 500.67,-372.5 500.67,-304.5 670.67,-304.5 670.67,-372.5"/>
<text text-anchor="start" x="546.17" y="-357.3" font-family="Times,serif" font-size="14.00">age ≤ 51.5</text>
<text text-anchor="start" x="508.67" y="-342.3" font-family="Times,serif" font-size="14.00">mse = 26221552.935</text>
<text text-anchor="start" x="532.17" y="-327.3" font-family="Times,serif" font-size="14.00">samples = 224</text>
<text text-anchor="start" x="517.67" y="-312.3" font-family="Times,serif" font-size="14.00">value = 12178.717</text>
</g>
<!-- 1&#45;&gt;5 -->
<g id="edge5" class="edge">
<title>1&#45;&gt;5</title>
<path fill="none" stroke="black" d="M431.89,-338.5C450.81,-338.5 471.01,-338.5 490.31,-338.5"/>
<polygon fill="black" stroke="black" points="490.31,-342 500.31,-338.5 490.31,-335 490.31,-342"/>
</g>
<!-- 3 -->
<g id="node4" class="node">
<title>3</title>
<polygon fill="#ffffff" stroke="black" points="904.67,-550 734.67,-550 734.67,-497 904.67,-497 904.67,-550"/>
<text text-anchor="start" x="742.67" y="-534.8" font-family="Times,serif" font-size="14.00">mse = 20672082.895</text>
<text text-anchor="start" x="766.17" y="-519.8" font-family="Times,serif" font-size="14.00">samples = 193</text>
<text text-anchor="start" x="756.17" y="-504.8" font-family="Times,serif" font-size="14.00">value = 4525.506</text>
</g>
<!-- 2&#45;&gt;3 -->
<g id="edge3" class="edge">
<title>2&#45;&gt;3</title>
<path fill="none" stroke="black" d="M666.18,-476.83C685.03,-482.6 705.32,-488.81 724.74,-494.76"/>
<polygon fill="black" stroke="black" points="723.92,-498.16 734.5,-497.74 725.97,-491.47 723.92,-498.16"/>
</g>
<!-- 4 -->
<g id="node5" class="node">
<title>4</title>
<polygon fill="#fdf5f0" stroke="black" points="904.67,-479 734.67,-479 734.67,-426 904.67,-426 904.67,-479"/>
<text text-anchor="start" x="742.67" y="-463.8" font-family="Times,serif" font-size="14.00">mse = 35768335.806</text>
<text text-anchor="start" x="770.67" y="-448.8" font-family="Times,serif" font-size="14.00">samples = 95</text>
<text text-anchor="start" x="756.17" y="-433.8" font-family="Times,serif" font-size="14.00">value = 7837.185</text>
</g>
<!-- 2&#45;&gt;4 -->
<g id="edge4" class="edge">
<title>2&#45;&gt;4</title>
<path fill="none" stroke="black" d="M666.18,-452.5C684.95,-452.5 705.13,-452.5 724.48,-452.5"/>
<polygon fill="black" stroke="black" points="724.5,-456 734.5,-452.5 724.5,-449 724.5,-456"/>
</g>
<!-- 6 -->
<g id="node7" class="node">
<title>6</title>
<polygon fill="#fcefe6" stroke="black" points="904.67,-408 734.67,-408 734.67,-355 904.67,-355 904.67,-408"/>
<text text-anchor="start" x="742.67" y="-392.8" font-family="Times,serif" font-size="14.00">mse = 16828104.438</text>
<text text-anchor="start" x="766.17" y="-377.8" font-family="Times,serif" font-size="14.00">samples = 102</text>
<text text-anchor="start" x="756.17" y="-362.8" font-family="Times,serif" font-size="14.00">value = 9926.288</text>
</g>
<!-- 5&#45;&gt;6 -->
<g id="edge6" class="edge">
<title>5&#45;&gt;6</title>
<path fill="none" stroke="black" d="M670.75,-354.08C688.1,-357.3 706.47,-360.71 724.16,-363.98"/>
<polygon fill="black" stroke="black" points="724.01,-367.52 734.48,-365.9 725.28,-360.63 724.01,-367.52"/>
</g>
<!-- 7 -->
<g id="node8" class="node">
<title>7</title>
<polygon fill="#f9e3d4" stroke="black" points="904.67,-337 734.67,-337 734.67,-284 904.67,-284 904.67,-337"/>
<text text-anchor="start" x="742.67" y="-321.8" font-family="Times,serif" font-size="14.00">mse = 26209523.332</text>
<text text-anchor="start" x="766.17" y="-306.8" font-family="Times,serif" font-size="14.00">samples = 122</text>
<text text-anchor="start" x="751.67" y="-291.8" font-family="Times,serif" font-size="14.00">value = 14102.903</text>
</g>
<!-- 5&#45;&gt;7 -->
<g id="edge7" class="edge">
<title>5&#45;&gt;7</title>
<path fill="none" stroke="black" d="M670.75,-328.35C688.1,-326.26 706.47,-324.04 724.16,-321.91"/>
<polygon fill="black" stroke="black" points="724.97,-325.33 734.48,-320.66 724.13,-318.38 724.97,-325.33"/>
</g>
<!-- 9 -->
<g id="node10" class="node">
<title>9</title>
<polygon fill="#f5ccaf" stroke="black" points="670.67,-245.5 500.67,-245.5 500.67,-177.5 670.67,-177.5 670.67,-245.5"/>
<text text-anchor="start" x="546.17" y="-230.3" font-family="Times,serif" font-size="14.00">age ≤ 41.0</text>
<text text-anchor="start" x="508.67" y="-215.3" font-family="Times,serif" font-size="14.00">mse = 31536012.094</text>
<text text-anchor="start" x="536.67" y="-200.3" font-family="Times,serif" font-size="14.00">samples = 66</text>
<text text-anchor="start" x="517.67" y="-185.3" font-family="Times,serif" font-size="14.00">value = 22086.522</text>
</g>
<!-- 8&#45;&gt;9 -->
<g id="edge9" class="edge">
<title>8&#45;&gt;9</title>
<path fill="none" stroke="black" d="M436.25,-211.5C453.84,-211.5 472.36,-211.5 490.14,-211.5"/>
<polygon fill="black" stroke="black" points="490.5,-215 500.5,-211.5 490.5,-208 490.5,-215"/>
</g>
<!-- 12 -->
<g id="node13" class="node">
<title>12</title>
<polygon fill="#e99355" stroke="black" points="670.67,-131.5 500.67,-131.5 500.67,-63.5 670.67,-63.5 670.67,-131.5"/>
<text text-anchor="start" x="546.17" y="-116.3" font-family="Times,serif" font-size="14.00">age ≤ 50.5</text>
<text text-anchor="start" x="508.67" y="-101.3" font-family="Times,serif" font-size="14.00">mse = 36261988.921</text>
<text text-anchor="start" x="536.67" y="-86.3" font-family="Times,serif" font-size="14.00">samples = 71</text>
<text text-anchor="start" x="517.67" y="-71.3" font-family="Times,serif" font-size="14.00">value = 41964.267</text>
</g>
<!-- 8&#45;&gt;12 -->
<g id="edge12" class="edge">
<title>8&#45;&gt;12</title>
<path fill="none" stroke="black" d="M418.45,-177.45C445.54,-164.42 476.61,-149.48 504.51,-136.06"/>
<polygon fill="black" stroke="black" points="506.34,-139.06 513.84,-131.57 503.31,-132.75 506.34,-139.06"/>
</g>
<!-- 10 -->
<g id="node11" class="node">
<title>10</title>
<polygon fill="#f6d6be" stroke="black" points="904.67,-266 734.67,-266 734.67,-213 904.67,-213 904.67,-266"/>
<text text-anchor="start" x="742.67" y="-250.8" font-family="Times,serif" font-size="14.00">mse = 23203728.668</text>
<text text-anchor="start" x="770.67" y="-235.8" font-family="Times,serif" font-size="14.00">samples = 34</text>
<text text-anchor="start" x="751.67" y="-220.8" font-family="Times,serif" font-size="14.00">value = 18792.391</text>
</g>
<!-- 9&#45;&gt;10 -->
<g id="edge10" class="edge">
<title>9&#45;&gt;10</title>
<path fill="none" stroke="black" d="M670.75,-221.65C688.1,-223.74 706.47,-225.96 724.16,-228.09"/>
<polygon fill="black" stroke="black" points="724.13,-231.62 734.48,-229.34 724.97,-224.67 724.13,-231.62"/>
</g>
<!-- 11 -->
<g id="node12" class="node">
<title>11</title>
<polygon fill="#f3c3a0" stroke="black" points="904.67,-195 734.67,-195 734.67,-142 904.67,-142 904.67,-195"/>
<text text-anchor="start" x="742.67" y="-179.8" font-family="Times,serif" font-size="14.00">mse = 18165690.093</text>
<text text-anchor="start" x="770.67" y="-164.8" font-family="Times,serif" font-size="14.00">samples = 32</text>
<text text-anchor="start" x="751.67" y="-149.8" font-family="Times,serif" font-size="14.00">value = 25380.654</text>
</g>
<!-- 9&#45;&gt;11 -->
<g id="edge11" class="edge">
<title>9&#45;&gt;11</title>
<path fill="none" stroke="black" d="M670.75,-195.92C688.1,-192.7 706.47,-189.29 724.16,-186.02"/>
<polygon fill="black" stroke="black" points="725.28,-189.37 734.48,-184.1 724.01,-182.48 725.28,-189.37"/>
</g>
<!-- 13 -->
<g id="node14" class="node">
<title>13</title>
<polygon fill="#ea9a60" stroke="black" points="904.67,-124 734.67,-124 734.67,-71 904.67,-71 904.67,-124"/>
<text text-anchor="start" x="742.67" y="-108.8" font-family="Times,serif" font-size="14.00">mse = 19331181.678</text>
<text text-anchor="start" x="770.67" y="-93.8" font-family="Times,serif" font-size="14.00">samples = 52</text>
<text text-anchor="start" x="751.67" y="-78.8" font-family="Times,serif" font-size="14.00">value = 39540.192</text>
</g>
<!-- 12&#45;&gt;13 -->
<g id="edge13" class="edge">
<title>12&#45;&gt;13</title>
<path fill="none" stroke="black" d="M670.75,-97.5C688.1,-97.5 706.47,-97.5 724.16,-97.5"/>
<polygon fill="black" stroke="black" points="724.48,-101 734.48,-97.5 724.48,-94 724.48,-101"/>
</g>
<!-- 14 -->
<g id="node15" class="node">
<title>14</title>
<polygon fill="#e58139" stroke="black" points="904.67,-53 734.67,-53 734.67,0 904.67,0 904.67,-53"/>
<text text-anchor="start" x="742.67" y="-37.8" font-family="Times,serif" font-size="14.00">mse = 26376597.475</text>
<text text-anchor="start" x="770.67" y="-22.8" font-family="Times,serif" font-size="14.00">samples = 19</text>
<text text-anchor="start" x="751.67" y="-7.8" font-family="Times,serif" font-size="14.00">value = 48128.343</text>
</g>
<!-- 12&#45;&gt;14 -->
<g id="edge14" class="edge">
<title>12&#45;&gt;14</title>
<path fill="none" stroke="black" d="M670.75,-71.77C688.26,-66.41 706.82,-60.73 724.65,-55.27"/>
<polygon fill="black" stroke="black" points="725.94,-58.54 734.48,-52.26 723.89,-51.84 725.94,-58.54"/>
</g>
</g>
</svg>
